<svg width="720" height="560" viewBox="0 0 720 560" fill="none" xmlns="http://www.w3.org/2000/svg">
  <rect width="720" height="560" rx="36" fill="#F7C600"/>
  <circle cx="585" cy="92" r="120" fill="#FFE89A" opacity="0.65"/>
  <circle cx="116" cy="486" r="150" fill="#D71920" opacity="0.1"/>
  <rect x="118" y="126" width="484" height="308" rx="26" fill="#FFF8D7" stroke="#D9A700" stroke-width="3"/>
  <rect x="154" y="168" width="232" height="22" rx="11" fill="#9B111E"/>
  <rect x="154" y="212" width="360" height="18" rx="9" fill="#E4B400"/>
  <rect x="154" y="252" width="408" height="80" rx="18" fill="#FFFFFF" stroke="#EAD47B" stroke-width="2"/>
  <rect x="182" y="280" width="166" height="16" rx="8" fill="#CBD5E1"/>
  <rect x="392" y="274" width="128" height="28" rx="14" fill="#D71920"/>
  <rect x="154" y="356" width="118" height="36" rx="18" fill="#FFFFFF"/>
  <rect x="294" y="356" width="118" height="36" rx="18" fill="#FFFFFF"/>
  <rect x="434" y="356" width="118" height="36" rx="18" fill="#FFFFFF"/>
  <rect x="456" y="72" width="120" height="78" rx="16" fill="#D71920"/>
  <path d="M486 111h60" stroke="white" stroke-width="9" stroke-linecap="round"/>
  <path d="M516 86v50" stroke="white" stroke-width="9" stroke-linecap="round"/>
  <rect x="94" y="88" width="116" height="72" rx="18" fill="white" opacity="0.9"/>
  <path d="M124 124h58" stroke="#D71920" stroke-width="10" stroke-linecap="round"/>
  <path d="M146 106h36" stroke="#F7C600" stroke-width="10" stroke-linecap="round"/>
  <path d="M152 410c58 22 121 33 189 33 85 0 163-18 235-54" stroke="#9B111E" stroke-width="8" stroke-linecap="round" opacity="0.3"/>
</svg>
